<svg xmlns="http://www.w3.org/2000/svg" xmlns:xlink="http://www.w3.org/1999/xlink" width="${width}" height="${height}" viewBox="0 0 615 699.14">
  <defs>
    <clipPath id="clip-BIG-Logo-Blue-Icon">
      <rect width="615" height="699.14"/>
    </clipPath>
  </defs>
  <g id="BIG-Logo-Blue-Icon" clip-path="url(#clip-BIG-Logo-Blue-Icon)">
    <path id="Path_1" data-name="Path 1" d="M2.03,199.448V532.577l153.726,88.771,63.38,36.606,71.351,41.188V548.517L270.06,513.1l20.427-11.788V365.965L73.381,240.588,2.03,199.4ZM399.876,575.53l121.463-70.11h0l24.34-14.032v-43L437.15,511.052V428.677l108.529-62.665,71.351-41.188V532.577L463.3,621.348l-63.38,36.606-71.351,41.188V366.012L545.679,240.636l71.351-41.188v82.375l-95.691,55.219-121.463,70.11ZM526.732,207.8l71.351-41.188L309.53,0,238.179,41.188Q382.432,124.518,526.732,207.8Zm-434.4-82.423L20.977,166.564l71.351,41.188,217.2,125.424,71.351-41.188Q236.628,208.659,92.328,125.377Zm217.2,0-71.351,41.188L346.8,229.277l71.351-41.188L346.8,229.277l71.351,41.188,71.351-41.188-71.351-41.188L309.53,125.377ZM200.905,62.665l-71.351,41.188,71.351,41.188,71.351-41.188L200.905,62.665ZM73.333,366.012v-43l145.8,84.189v43Zm145.8,209.566-145.8-84.189v-43l145.8,84.189Z" transform="translate(-2.03)" fill="#036" fill-rule="evenodd"/>
  </g>
</svg>
